<svg width="778" height="778" viewBox="0 0 778 778" fill="none" xmlns="http://www.w3.org/2000/svg">
<rect width="778" height="778" fill="#140D01"/>
<path d="M373.927 389.927V534.686H293.254V505.734C273.448 528.895 242.049 543.371 201.954 543.371C119.833 543.371 58 474.852 58 389.444C58 304.037 125.63 236.483 215.48 236.483C315.475 236.483 373.444 309.827 373.444 389.927H373.927ZM143.02 389.927C143.02 431.907 175.386 464.719 215.48 464.719C258.473 464.719 288.424 429.494 288.424 389.927C288.424 350.36 258.473 315.618 215.48 315.618C172.487 315.618 143.02 348.912 143.02 389.927Z" fill="#F9F7F6" fill-opacity="0.99"/>
<path d="M291.805 243.239H375.375V534.686H291.805V243.239Z" fill="#F9F7F6" fill-opacity="0.99"/>
<path d="M719.97 389.444C719.97 474.852 658.137 543.371 576.015 543.371C538.336 543.371 507.42 530.825 487.614 511.041V650.009H404.043V389.444C404.043 309.344 462.011 236 562.006 236C652.34 236 719.486 299.211 719.486 388.962L719.97 389.444ZM489.546 389.927C489.546 429.494 519.496 464.719 562.489 464.719C603.067 464.719 635.433 431.907 635.433 389.927C635.433 347.947 604.516 315.617 562.489 315.617C520.462 315.617 489.546 350.359 489.546 389.927Z" fill="#F9F7F6" fill-opacity="0.99"/>
<path d="M404.043 243.239H487.614V534.686H404.043V243.239Z" fill="#F9F7F6" fill-opacity="0.99"/>
</svg>
